Coordinates
version=1
nRows=8
nColumns=36
inDegrees=yes

Units are S.I. units (second, meters, Newtons, ...)
If the header above contains a line with 'inDegrees', this indicates whether rotational values are in degrees (yes) or radians (no).

endheader
time	pelvis_tilt	pelvis_list	pelvis_rotation	pelvis_tx	pelvis_ty	pelvis_tz	hip_flexion_r	hip_adduction_r	hip_rotation_r	knee_angle_r	knee_angle_r_beta	ankle_angle_r	subtalar_angle_r	mtp_angle_r	hip_flexion_l	hip_adduction_l	hip_rotation_l	knee_angle_l	knee_angle_l_beta	ankle_angle_l	subtalar_angle_l	mtp_angle_l	lumbar_extension	lumbar_bending	lumbar_rotation	arm_flex_r	arm_add_r	arm_rot_r	elbow_flex_r	pro_sup_r	arm_flex_l	arm_add_l	arm_rot_l	elbow_flex_l	pro_sup_l
      6.88333330	    -27.87613784	     -3.02940172	     -7.74397404	      0.72650268	      0.64151405	      0.14802915	     81.33595532	     11.21638292	    -13.12096882	     86.65944573	      1.51249266	     36.54455225	      5.67612059	     -7.49999987	    103.84680008	    -10.77608821	     13.94857966	     47.15046134	      0.82293079	      2.33011713	      2.29728480	     -7.49999987	    -18.00133170	     11.82790544	     10.72432853	     63.05242265	     -6.92359877	     76.32930752	    119.90233478	    107.96172479	     62.62758502	      4.35484875	     60.74683472	    119.98838741	    111.90580754
      6.90000000	    -28.13147206	     -3.26460981	     -8.02790292	      0.73404871	      0.63900820	      0.14967551	     81.61103839	     11.42818679	    -13.43528515	     87.15679888	      1.52117311	     37.29338889	      6.46919834	     -7.49999987	    104.63601054	    -11.10599486	     14.54505799	     47.65695284	      0.83177074	      2.69700915	      2.42422080	     -7.49999987	    -18.04912313	     11.96891502	     10.86472254	     62.53092722	     -6.59454569	     75.92787422	    119.65403397	    108.07383854	     61.84718569	      3.84756291	     61.68436609	    119.61697929	    112.06843606
      6.91666670	    -28.60465405	     -3.31635769	     -8.36484436	      0.72550382	      0.63662586	      0.14772047	     82.23092753	     11.43721317	    -13.77974849	     87.48346725	      1.52687454	     37.53385622	      6.76765543	     -7.49999987	    105.40238203	    -11.40302169	     14.75644210	     47.54629193	      0.82983934	      2.57205197	      2.95421481	     -7.49999987	    -18.07560300	     12.14424994	     11.24454530	     63.10236687	     -8.10628293	     77.15532854	    119.56508047	    108.13894004	     62.14285519	      3.57201477	     60.73284468	    117.77163799	    112.07497904
      6.93333330	    -29.24243086	     -3.56616625	     -8.68906960	      0.73274062	      0.63093260	      0.14983748	     82.74192793	     11.57097614	    -14.27815468	     87.73949430	      1.53134306	     38.09789079	      7.34307924	     -7.49999987	    106.36864081	    -11.68622011	     15.26255932	     47.71149642	      0.83272270	      2.86703430	      3.57382059	     -7.49999987	    -17.75626564	     12.29106416	     11.72665816	     62.52466829	     -8.17040040	     78.74481199	    119.79883623	    108.40291286	     61.64585363	      3.97133483	     61.68083368	    117.93162595	    112.27487985
      6.95000000	    -30.00231826	     -3.68768942	     -8.85402532	      0.73238623	      0.62949864	      0.14976460	     83.44928124	     11.52777666	    -14.63997922	     87.97436713	      1.53544236	     38.58829379	      7.86568205	     -7.49999987	    107.27619931	    -11.75458940	     15.59991675	     47.53008237	      0.82955643	      2.90522333	      4.04663532	     -7.49999987	    -17.51324266	     12.54483282	     11.95146887	     62.57903644	     -8.32989692	     79.26582764	    119.59640965	    107.67055883	     61.40034383	      4.47018815	     61.46850005	    117.73392494	    112.14562043
      6.96666670	    -30.66624438	     -3.88924290	     -9.01914500	      0.73181316	      0.62266632	      0.14974136	     84.23795236	     11.49129499	    -15.18504554	     88.33961411	      1.54181713	     38.88051056	      8.07137797	     -7.49999987	    108.28602915	    -11.87089041	     15.85248365	     47.50484693	      0.82911599	      3.10417100	      4.84626494	     -7.49999987	    -17.20303261	     12.84347168	     12.05701734	     62.51483427	     -8.31985621	     79.12827029	    119.46815456	    107.89489538	     61.72995903	      4.89302179	     61.26951218	    118.34064665	    112.13168979
      6.98333330	    -31.37256448	     -4.06809482	     -9.08327487	      0.73078078	      0.61875107	      0.15026516	     85.28415255	     11.31688700	    -15.79793764	     88.89640322	      1.55153493	     39.10716930	      8.34776196	     -7.49999987	    109.31830048	    -11.82845769	     16.15778717	     47.60620327	      0.83088499	      3.29381294	      5.44797600	     -7.49999987	    -16.86311231	     13.24683158	     12.03918233	     62.57176315	     -8.33985325	     78.13312862	    118.97848626	    107.71425971	     62.16385813	      4.99252699	     60.51605226	    117.89553709	    112.67417144
      7.00000000	    -31.96376563	     -3.96117743	     -9.12505669	      0.72380832	      0.61418364	      0.14817891	     86.66507530	     10.79212635	    -16.38994740	     89.67079029	      1.56505053	     38.99332478	      8.33777675	     -7.49999987	    110.26011828	    -11.74598261	     16.18633077	     47.79743976	      0.83422270	      3.13295514	      5.72201783	     -7.49999987	    -16.85538813	     13.39307693	     12.20176504	     64.14057925	     -8.32433607	     76.86573622	    118.78074381	    107.69264338	     63.50529344	      4.97656551	     59.81675340	    117.65660605	    112.62899262
